<?xml version="1.0" standalone="no"?>
<!DOCTYPE svg PUBLIC "-//W3C//DTD SVG 20010904//EN"
 "http://www.w3.org/TR/2001/REC-SVG-20010904/DTD/svg10.dtd">
<svg version="1.0" xmlns="http://www.w3.org/2000/svg"
 width="427.000000pt" height="264.000000pt" viewBox="0 0 427.000000 264.000000"
 preserveAspectRatio="xMidYMid meet">

<g transform="translate(0.000000,264.000000) scale(0.100000,-0.100000)"
fill="#000000" stroke="none">
<path d="M200 2432 c0 -5 135 -181 301 -393 165 -211 335 -428 376 -481 l76
-98 69 0 70 0 -50 63 c-232 293 -622 800 -622 807 0 6 80 10 200 10 l200 0 92
-115 c50 -63 95 -115 99 -115 4 0 54 50 111 110 l104 110 57 0 c31 0 57 -3 57
-6 0 -4 -46 -58 -102 -121 -57 -63 -117 -132 -135 -152 l-32 -38 40 -39 40
-39 32 35 c50 55 143 162 276 315 l121 140 -197 3 -198 3 -83 -88 -84 -87 -19
24 c-10 14 -40 55 -66 92 l-48 68 -342 0 c-189 0 -343 -4 -343 -8z"/>
<path d="M631 2221 c8 -11 131 -169 274 -352 143 -183 277 -355 298 -382 21
-28 49 -63 62 -79 14 -16 25 -34 25 -39 0 -5 -86 -9 -204 -9 l-204 0 -83 113
c-45 61 -86 116 -91 122 -5 6 -56 -38 -131 -113 l-123 -123 -64 3 -63 3 84 90
c192 207 219 237 219 244 0 4 -15 22 -33 39 l-33 32 -39 -42 c-22 -24 -126
-135 -232 -248 -106 -112 -193 -208 -193 -212 0 -4 91 -8 202 -8 l203 0 90 90
90 90 68 -90 69 -90 349 0 c223 0 349 4 349 10 0 5 -62 87 -138 182 -76 95
-228 286 -337 423 -109 138 -219 276 -244 307 l-46 58 -69 0 c-66 0 -68 -1
-55 -19z"/>
<path d="M1860 2233 c-49 -9 -156 -43 -173 -56 -11 -7 -21 -31 -24 -57 -3 -25
-16 -66 -29 -92 -62 -124 -100 -252 -110 -368 -8 -97 0 -107 89 -121 77 -12
193 1 238 28 36 22 57 59 41 75 -7 7 -12 20 -12 30 0 16 -10 18 -85 18 -49 0
-85 4 -85 10 0 5 10 34 23 65 19 48 25 55 50 55 62 0 112 37 132 99 7 24 7 24
-54 18 -59 -6 -61 -6 -61 17 0 12 13 42 30 64 24 34 40 44 86 58 81 23 129 80
110 129 -11 30 -85 42 -166 28z"/>
<path d="M2383 2219 c-44 -14 -70 -29 -94 -56 -68 -78 -200 -401 -215 -526 -6
-49 -4 -56 17 -71 29 -20 122 -22 138 -2 16 19 51 125 51 155 1 25 1 26 16 6
9 -11 26 -42 38 -70 26 -58 39 -70 84 -79 17 -3 46 -9 62 -12 37 -8 60 9 60
43 0 29 -13 55 -50 103 -15 19 -35 47 -44 62 l-17 26 37 18 c149 71 228 324
127 404 -34 26 -125 26 -210 -1z m84 -149 c-7 -54 -29 -86 -75 -109 l-37 -19
33 71 c40 84 49 97 70 97 11 0 13 -9 9 -40z"/>
<path d="M3100 2230 c-8 -5 -37 -10 -63 -10 -65 0 -118 -29 -168 -92 -84 -106
-141 -262 -141 -389 -1 -92 30 -146 104 -183 101 -50 207 -29 293 59 83 86
165 294 165 421 0 66 -33 157 -67 184 -28 21 -96 27 -123 10z m-25 -257 c-8
-82 -35 -184 -66 -244 -21 -42 -67 -99 -79 -99 -5 0 -14 17 -21 38 -9 33 -8
48 13 108 14 38 47 106 75 151 28 45 54 91 58 102 3 12 11 21 17 21 7 0 8 -25
3 -77z"/>
</g>
</svg>
